<?xml version="1.0" standalone="no"?>
<!DOCTYPE svg PUBLIC "-//W3C//DTD SVG 20010904//EN"
 "http://www.w3.org/TR/2001/REC-SVG-20010904/DTD/svg10.dtd">
<svg version="1.0" xmlns="http://www.w3.org/2000/svg"
 width="102.000000pt" height="137.000000pt" viewBox="0 0 102.000000 137.000000"
 preserveAspectRatio="xMidYMid meet">

<g transform="translate(0.000000,137.000000) scale(0.100000,-0.100000)"
fill="#000000" stroke="none">
<path d="M396 1191 c-4 -5 3 -7 14 -4 23 6 26 13 6 13 -8 0 -17 -4 -20 -9z"/>
<path d="M496 1193 c6 -4 14 -15 17 -23 5 -11 6 -9 4 4 -1 11 -9 21 -17 23
-10 3 -11 2 -4 -4z"/>
<path d="M310 1134 c0 -42 1 -44 16 -29 13 13 19 13 32 3 10 -9 7 2 -8 30 -13
23 -27 42 -32 42 -4 0 -8 -21 -8 -46z m30 0 c0 -8 -4 -14 -10 -14 -5 0 -10 9
-10 21 0 11 5 17 10 14 6 -3 10 -13 10 -21z"/>
<path d="M567 1151 c-9 -45 -9 -61 2 -61 5 0 7 9 4 20 -4 16 0 20 18 21 16 1
18 3 7 6 -9 2 -18 14 -20 26 -3 17 -5 15 -11 -12z"/>
<path d="M402 1130 c0 -19 2 -27 5 -17 2 9 2 25 0 35 -3 9 -5 1 -5 -18z"/>
<path d="M646 1138 c-21 -29 -20 -52 1 -69 15 -13 15 -12 3 8 -11 17 -11 27
-2 47 13 30 38 34 46 9 4 -14 4 -14 3 2 -3 28 -32 30 -51 3z"/>
<path d="M253 1138 c4 -10 10 -26 14 -35 5 -13 -3 -10 -26 10 -19 15 -36 26
-38 23 -3 -2 5 -24 16 -48 12 -23 18 -34 15 -23 -19 62 -19 62 7 39 45 -39 51
-39 34 2 -16 38 -34 64 -22 32z"/>
<path d="M501 1114 c0 -11 3 -14 6 -6 3 7 2 16 -1 19 -3 4 -6 -2 -5 -13z"/>
<path d="M721 1094 c-12 -20 -20 -38 -18 -40 2 -2 14 14 26 36 28 50 21 53 -8
4z"/>
<path d="M140 1105 c-10 -12 -8 -21 10 -50 23 -37 34 -43 46 -23 5 7 3 8 -6 3
-17 -10 -32 16 -18 32 8 10 7 12 -5 8 -23 -10 -33 16 -12 32 11 7 14 13 8 13
-6 0 -16 -7 -23 -15z"/>
<path d="M776 1084 c-4 -10 -12 -14 -24 -9 -13 5 -14 4 -5 -6 8 -8 9 -18 2
-31 -5 -10 -8 -18 -5 -18 7 0 47 72 43 77 -3 2 -7 -4 -11 -13z"/>
<path d="M359 914 c-26 -7 -68 -29 -95 -46 -48 -33 -114 -109 -114 -131 0 -7
58 -71 130 -142 l130 -130 0 143 c0 78 -2 142 -5 142 -4 0 -20 -7 -36 -16
l-30 -15 3 36 c3 33 9 41 61 72 l57 36 57 -36 c46 -28 59 -42 65 -69 3 -18 5
-34 3 -36 -2 -2 -17 4 -35 13 -18 9 -33 15 -35 13 -6 -7 -12 -278 -6 -278 3 0
66 60 139 133 l133 134 -33 44 c-95 124 -249 177 -389 133z"/>
<path d="M96 638 c-13 -50 -6 -158 14 -210 25 -66 82 -145 116 -160 23 -11 30
-7 92 55 l67 67 -135 135 c-74 74 -138 135 -141 135 -4 0 -9 -10 -13 -22z"/>
<path d="M184 198 c-4 -6 0 -16 9 -23 22 -16 22 -29 0 -20 -15 5 -16 4 -5 -6
10 -11 14 -11 25 0 10 10 9 15 -5 25 -22 16 -23 30 -2 22 8 -3 12 -2 9 4 -8
13 -22 13 -31 -2z"/>
<path d="M513 175 c0 -22 2 -30 4 -17 2 12 2 30 0 40 -3 9 -5 -1 -4 -23z"/>
<path d="M370 177 c0 -14 4 -28 8 -31 9 -5 8 41 -1 51 -4 3 -7 -5 -7 -20z"/>
<path d="M231 163 l1 -28 8 25 8 25 2 -25 c2 -21 3 -22 7 -5 3 11 10 23 17 27
6 4 -1 8 -16 8 -24 0 -28 -4 -27 -27z"/>
<path d="M309 181 c11 -7 11 -9 0 -14 -11 -4 -11 -6 1 -6 13 -1 13 -2 0 -11
-13 -8 -12 -10 3 -10 12 0 17 8 17 25 0 17 -5 25 -17 25 -14 0 -15 -2 -4 -9z"/>
<path d="M340 165 c0 -14 2 -25 4 -25 2 0 6 11 8 25 3 14 1 25 -3 25 -5 0 -9
-11 -9 -25z"/>
<path d="M420 181 c0 -6 5 -13 11 -17 8 -4 7 -9 -2 -15 -11 -7 -10 -9 4 -9 19
0 23 15 6 26 -8 4 -7 9 2 15 11 7 10 9 -3 9 -10 0 -18 -4 -18 -9z"/>
<path d="M463 174 c-8 -21 13 -42 28 -27 13 13 5 43 -11 43 -6 0 -13 -7 -17
-16z m27 -9 c0 -8 -4 -15 -10 -15 -5 0 -10 7 -10 15 0 8 5 15 10 15 6 0 10 -7
10 -15z"/>
<path d="M531 168 c-1 -19 4 -28 14 -28 10 0 15 9 14 28 -2 27 -2 27 -7 2 l-5
-25 -8 25 -7 25 -1 -27z"/>
<path d="M602 165 c0 -16 2 -22 5 -12 2 9 2 23 0 30 -3 6 -5 -1 -5 -18z"/>
<path d="M623 174 c-8 -21 13 -42 28 -27 13 13 5 43 -11 43 -6 0 -13 -7 -17
-16z m27 -9 c0 -8 -4 -15 -10 -15 -5 0 -10 7 -10 15 0 8 5 15 10 15 6 0 10 -7
10 -15z"/>
<path d="M671 163 l1 -28 7 25 8 25 5 -25 c5 -25 5 -25 7 3 1 18 -4 27 -14 27
-10 0 -15 -9 -14 -27z"/>
<path d="M715 181 c-6 -11 13 -26 22 -17 4 3 0 6 -8 6 -11 0 -11 2 1 10 9 6
10 10 3 10 -6 0 -14 -4 -18 -9z"/>
</g>
</svg>
